<svg xmlns="http://www.w3.org/2000/svg" width="52" height="52" viewBox="0 0 52 52" version="1.1"><path d="M 41.670 28.417 C 41.051 30.031, 43.624 31.417, 44.527 29.956 C 45.207 28.855, 44.279 27, 43.048 27 C 42.589 27, 41.969 27.638, 41.670 28.417" stroke="none" fill="#000000" fill-rule="evenodd"/><path d="M 41.324 25.069 C 36.938 27.239, 35 30.636, 35 36.149 C 35 38.377, 34.542 39, 32.904 39 C 29.743 39, 24.991 42.189, 24.350 44.740 C 23.684 47.394, 23.608 47.410, 20.154 45.639 C 15.072 43.032, 11.573 42.349, 8 43.265 C 3.825 44.336, 0 47.639, 0 50.174 C 0 51.894, 1.478 52, 25.500 52 C 44.319 52, 51 51.693, 51 50.829 C 51 48.822, 47.887 46.106, 46.290 46.719 C 44.981 47.221, 44.870 46.409, 45.498 40.901 C 45.899 37.381, 46.428 34.163, 46.673 33.750 C 47.392 32.538, 50 32.891, 50 34.200 C 50 34.992, 50.337 35.063, 50.990 34.410 C 52.425 32.975, 50.542 27.205, 47.889 24.904 C 46.682 23.857, 45.650 23, 45.597 23.001 C 45.544 23.001, 43.621 23.932, 41.324 25.069 M 41.670 28.417 C 41.051 30.031, 43.624 31.417, 44.527 29.956 C 45.207 28.855, 44.279 27, 43.048 27 C 42.589 27, 41.969 27.638, 41.670 28.417" stroke="none" fill="#ff0000" fill-rule="evenodd"/><path d="M 2.602 3.887 C 0.620 6.078, 0.537 9.985, 2.419 12.559 C 3.734 14.356, 5.197 14.502, 22.169 14.530 C 40.107 14.559, 46.206 13.734, 49.742 10.799 C 51.420 9.406, 51.346 4.532, 49.625 3.104 C 48.681 2.320, 41.357 1.987, 26.228 2.040 C 6.485 2.108, 4.039 2.299, 2.602 3.887" stroke="none" fill="#ffffff" fill-rule="evenodd"/><path d="M 10 17.257 C 10 17.948, 10.419 19.974, 10.931 21.759 C 11.789 24.752, 11.596 25.207, 8.431 27.621 C 6.544 29.060, 5 30.609, 5 31.064 C 5 31.518, 7.098 32.028, 9.662 32.195 C 14.150 32.489, 14.383 32.660, 15.869 36.750 C 16.718 39.087, 17.733 41, 18.123 41 C 18.514 41, 19.469 39.087, 20.245 36.750 C 21.612 32.635, 21.805 32.490, 26.328 32.195 C 28.898 32.028, 31 31.488, 31 30.996 C 31 30.504, 29.476 28.940, 27.614 27.519 C 24.349 25.029, 24.265 24.794, 25.245 20.933 C 25.804 18.730, 26.001 16.668, 25.683 16.350 C 25.365 16.032, 23.500 16.764, 21.538 17.976 L 17.971 20.181 14.429 18.090 C 10.284 15.645, 10 15.592, 10 17.257" stroke="none" fill="#0000ff" fill-rule="evenodd"/></svg>
